<svg width="44" height="55" viewBox="0 0 44 55" fill="none" xmlns="http://www.w3.org/2000/svg">
<g clip-path="url(#clip0)">
<path d="M33.602 41.523C31.8464 41.4783 30.1448 42.1316 28.8701 43.3395C27.5954 44.5475 26.8517 46.2116 26.802 47.967C26.7633 48.8623 26.906 49.7561 27.2216 50.5948C27.5372 51.4335 28.0192 52.1997 28.6386 52.8473C29.2579 53.4949 30.0018 54.0106 30.8256 54.3634C31.6493 54.7161 32.5359 54.8987 33.432 54.9C35.2004 54.9179 36.9035 54.2326 38.1667 52.9949C39.4299 51.7572 40.1498 50.0684 40.168 48.3C40.1942 46.5311 39.5176 44.8241 38.2866 43.5536C37.0556 42.283 35.3708 41.5527 33.602 41.523ZM33.435 51.258C33.033 51.252 32.6361 51.1669 32.267 51.0075C31.8979 50.8481 31.5639 50.6175 31.2839 50.329C31.0039 50.0405 30.7835 49.6996 30.6353 49.3259C30.487 48.9522 30.4139 48.553 30.42 48.151C30.4273 47.749 30.5145 47.3524 30.6764 46.9843C30.8383 46.6163 31.0718 46.284 31.3632 46.007C31.6546 45.7299 31.9981 45.5135 32.3738 45.3703C32.7496 45.2271 33.1501 45.1601 33.552 45.173C33.9478 45.1756 34.3391 45.2573 34.7029 45.4132C35.0668 45.569 35.3958 45.796 35.6708 46.0807C35.9457 46.3655 36.1611 46.7023 36.3041 47.0713C36.4472 47.4404 36.5152 47.8343 36.504 48.23C36.5094 48.6326 36.4334 49.0322 36.2805 49.4047C36.1277 49.7772 35.9011 50.115 35.6145 50.3978C35.3279 50.6806 34.9871 50.9025 34.6126 51.0504C34.238 51.1982 33.8375 51.2688 33.435 51.258Z" fill="#030504"/>
<path d="M42.089 3.95301C39.189 4.16101 39.317 3.633 36.466 4.165V3.38C36.345 2.833 35.808 3.045 35.529 3.045C23.987 3.045 12.445 3.039 0.902988 3.027C0.102988 3.027 -0.036971 3.278 0.00802903 4.002C0.308029 8.789 0.556999 13.579 0.839999 18.367C1.074 22.327 1.33997 26.285 1.56497 30.245C1.56998 30.5553 1.64883 30.86 1.79489 31.1339C1.94096 31.4078 2.15007 31.643 2.405 31.82C2.99 32.249 3.56498 32.694 4.16098 33.108C4.48555 33.3212 4.75237 33.6114 4.93766 33.9526C5.12294 34.2939 5.22096 34.6757 5.22299 35.064C5.50499 40.32 5.83402 45.574 6.12302 50.829C6.11662 51.3618 6.22019 51.8902 6.42734 52.3812C6.63449 52.8721 6.94073 53.315 7.32688 53.6822C7.71302 54.0494 8.17074 54.3329 8.67148 54.5151C9.17222 54.6973 9.70522 54.7742 10.237 54.741C15.2944 54.741 20.352 54.745 25.41 54.753H27.21C24.455 51.56 23.47 48.153 25.191 44.445C26.912 40.737 30.179 39.145 34.253 39.183C34.8637 29.4963 35.4717 19.85 36.077 10.244C36.231 7.07401 36.243 8.255 36.231 6.722C36.231 6.257 38.292 6.337 39.251 6.333C41.222 6.325 40.08 6.34 42.051 6.323C42.2136 6.33903 42.3778 6.32038 42.5326 6.26828C42.6875 6.21617 42.8295 6.13181 42.9493 6.02075C43.0692 5.9097 43.1641 5.77449 43.2278 5.62405C43.2915 5.4736 43.3226 5.31135 43.319 5.14801C43.3333 4.98443 43.311 4.81971 43.2538 4.66581C43.1965 4.51192 43.1057 4.3727 42.9879 4.25828C42.8701 4.14386 42.7283 4.05709 42.5728 4.00429C42.4174 3.95149 42.2521 3.93397 42.089 3.95301Z" fill="#030504"/>
<path d="M35.729 3.07899C35.7054 2.91794 35.65 2.76319 35.566 2.62374C35.482 2.4843 35.3712 2.36295 35.2399 2.26673C35.1086 2.17052 34.9595 2.10137 34.8012 2.0633C34.6429 2.02523 34.4787 2.01901 34.318 2.04499H13.644C13.412 0.255992 13.357 0.00998319 11.674 0.00498319C10.04 -0.000350145 8.40665 0.00232739 6.77399 0.0129941C5.06499 0.0249941 5.15902 0.291996 4.82202 1.996C4.51202 2.011 4.21002 2.036 3.90802 2.037C2.42902 2.042 3.90799 2.042 2.42999 2.037C1.87399 2.037 1.29503 2.15899 1.20703 2.75999C1.19423 2.97749 1.0974 3.18152 0.937012 3.32899H35.994C35.854 3.25799 35.748 3.16799 35.729 3.07899Z" fill="#030504"/>
</g>
<defs>
<clipPath id="clip0">
<rect width="43.32" height="54.899" fill="white"/>
</clipPath>
</defs>
</svg>
