<?xml version="1.0" standalone="no"?>
<!DOCTYPE svg PUBLIC "-//W3C//DTD SVG 1.0//EN" "http://www.w3.org/TR/2001/REC-SVG-20010904/DTD/svg10.dtd">
<svg xmlns="http://www.w3.org/2000/svg" xmlns:xlink="http://www.w3.org/1999/xlink" id="body_1" width="123" height="92">

<g transform="matrix(0.40065145 0 0 0.40000004 0 0)">
	<g transform="matrix(0.23025 0 0 0.23 38.375008 -0)">
	</g>
    <path transform="matrix(0.23025 0 0 0.23 38.375008 -0)"  d="M299.26 625.87C 299.26 607.0537 292.60742 590.9929 279.30225 577.68774C 265.9971 564.38257 249.93634 557.73 231.12 557.73C 212.30365 557.73 196.2429 564.38257 182.93774 577.68774C 169.63258 590.9929 162.98001 607.0537 162.98 625.87C 162.98001 644.68634 169.63258 660.7471 182.93774 674.05225C 196.2429 687.3574 212.30365 694.01 231.12 694.01C 249.93634 694.01 265.9971 687.3574 279.30225 674.05225C 292.60742 660.7471 299.26 644.68634 299.26 625.87" stroke="none" fill="#2D2D2D" fill-rule="nonzero" />
	<g transform="matrix(0.23025 0 0 0.23 38.375008 -0)">
	</g>
    <path transform="matrix(0.23025 0 0 0.23 38.375008 -0)"  d="M896.9 625.19C 896.9 606.37366 890.24744 590.3129 876.94226 577.00775C 863.6371 563.7026 847.57635 557.05 828.76 557.05C 809.9437 557.05 793.88293 563.7026 780.57776 577.00775C 767.2726 590.3129 760.62 606.37366 760.62 625.19C 760.62 644.00635 767.2726 660.06714 780.57776 673.37225C 793.88293 686.6775 809.9437 693.3301 828.76 693.33C 847.57635 693.3301 863.6371 686.6775 876.94226 673.37225C 890.24744 660.06714 896.9 644.00635 896.9 625.19" stroke="none" fill="#2D2D2D" fill-rule="nonzero" />
	<g transform="matrix(0.23025 0 0 0.23 38.375008 -0)">
	</g>
    <path transform="matrix(0.23025 0 0 0.23 38.375008 -0)"  d="M935.42 507.21C 932.12 496.13998 922.26996 495.33 912.06 492.94C 901.01 490.35 889.7 489.06 878.42 487.94C 864.91 486.59 851.31 485.38 837.76 485.38C 817.13 485.38 796.43 485.71 775.88 487.38C 761.39 488.59 746.98 491.80002 732.75 495.06C 708.34 500.65 683.75 506.47 671.75 532.5C 671.0407 533.6807 670.231 534.7982 669.33 535.84C 669.0813 534.99506 668.9172 534.12744 668.84 533.25C 668.87524 532.0681 669.06 530.89545 669.39 529.76C 675.39 512.76 687.89 502.31 704.06 496.08002C 733.67 484.68002 764.77 480.23 796.2 478.62003C 816.69183 477.47894 837.2328 477.51904 857.72003 478.74002C 874.57 479.83002 891.31006 483.31003 907.96 486.48C 913.53 487.54 915.36005 486.39 914.60004 481.14C 913.08 470.69 910.76 460.32 909.89 449.82C 909.09 440.2 904.13 435.45 895.67004 431.82C 876.43005 423.61002 855.98004 426.46002 836.32007 425.88C 786.0801 424.4 735.7701 425.14 685.4801 425.38L685.4801 425.38L674.8901 425.38C 667.0901 425.38 662.37006 422.91 659.7801 415.08002C 654.2901 398.46002 647.2801 382.33002 642.2701 365.58002C 635.4701 342.82 620.5801 329.21002 598.07007 323.95C 565.7922 316.5183 532.6995 313.22516 499.59006 314.15002C 473.03006 314.76 459.32007 331.76 457.39005 352.28003C 455.00003 377.70004 454.56006 403.28003 454.05005 428.75003C 453.88004 437.27002 453.48004 445.75003 453.33005 454.30002C 453.25006 458.64 453.33005 462.97003 453.33005 467.30002C 453.33005 471.18002 453.87006 475.38 453.13004 479.19003C 452.71912 480.8833 451.8224 482.41962 450.55005 483.61005C 449.37027 484.38312 448.1256 485.05228 446.83005 485.61005L446.83005 485.61005L447.12006 451.19006C 447.12006 449.25006 447.12006 447.19006 446.17004 445.52005C 445.05005 443.52005 443.42004 443.52005 441.44003 443.32004C 429.15002 442.00003 416.04004 443.24005 403.67004 443.24005L403.67004 443.24005L364.98004 443.24005L287.60004 443.24005C 236.08005 443.24005 184.56004 443.24005 133.04004 443.24005L133.04004 443.24005L91.31004 443.24005C 84.31004 443.24005 77.40004 443.24005 70.44004 443.24005C 64.60004 443.24005 60.66004 441.57004 55.44004 445.29004C 54.331493 446.02576 53.393723 446.9908 52.69004 448.12003C 51.48004 450.24002 51.63004 452.84003 51.750042 455.28003C 52.220043 465.09003 49.990044 474.57004 49.990044 484.28003C 49.990047 511.0334 50.04338 537.78674 50.150043 564.54004C 50.150043 584.35004 50.150043 603.76 53.860043 623.39C 54.23004 625.39 54.700043 627.46 56.110043 628.89C 57.14295 629.8424 58.392292 630.5289 59.750042 630.89C 63.650043 632.12 67.52004 631.89 71.530045 631.7C 99.76004 630.7 128.18005 634.92 156.53004 628.8C 161.16005 668.64 184.09004 695.67 222.59004 700.23C 269.10004 705.74 296.24005 677.69 306.91003 633.04C 308.62003 634.22 309.91003 634.72 309.91003 635.19C 309.85004 638.01 309.91003 642.09 312.78003 643.58C 315.48004 644.97003 320.08002 644.45 322.98004 644.36005C 341.2334 643.7934 359.49005 643.32007 377.75003 642.94006L377.75003 642.94006L742.73 642.94006C 746.17 642.99005 747.43 638.68005 748.32 635.94006C 749.62 631.94006 751.68 629.36005 754.32 626.24005C 756.77 649.73004 764.32 668.24005 781.14 682.24005C 797.96 696.24005 817.31 704.59 838.76 700.80005C 859.47003 697.1401 878.86 687.6401 890.85004 669.12006C 907.28 643.75006 909.42004 616.68005 895.93005 588.43005C 897.60004 591.93005 901.07007 593.88007 903.03 597.07007C 905.84 601.62006 908.03 614.6501 913.19 616.6401C 915.1949 617.27606 917.30194 617.52716 919.4 617.38007L919.4 617.38007L926.92004 617.32007C 929.08514 617.4712 931.2562 617.1293 933.27 616.32007C 937.60004 614.1601 935.58 609.0301 935.72003 605.18005C 935.95 598.67004 936.52 592.18005 936.9 585.6401C 937.64 572.99005 938.31 560.3301 938.73004 547.6401C 939.18 534.14 939.31 520.26 935.42 507.21zM504.48 398.47C 505.2818 388.69824 505.3319 378.87946 504.63 369.1C 503.87 355.68 514.15 347.86002 528.25 348.71002C 545.34 349.71002 562.48 350.27002 579.5 352.02002C 589.86 353.08002 600.64 354.54 610.14 358.46002C 624.27 364.29 625.66003 379.37003 629.94 391.92C 631.63 396.87003 632.55 402.08002 633.64 406.44C 633.24 418.44 623.97003 424.95 612.29004 424.37C 593.21 423.37 574.06006 423.97 554.94006 423.58C 543.0301 423.34 530.86005 423.9 519.31006 421.58C 506.09 419 503.16 411.87 504.48 398.47zM233.69 692.38C 194.82 692.97003 165.69 663.27 165.69 625.65C 165.76001 589.51 195.52 557.89 234.03 558.53C 266.82 559.08 299.32 590.12006 298.21 624.79004C 298.24 663.61 269.08 691.84 233.69 692.38zM301.52002 595.51C 289.15 573.34 273 557 247.17 552C 222.03 547.1 200.57 554.62 180.43 569.32C 185.04999 557.55 194.93 551.89 205.62 548.21C 234.84 538.15 263.03 539.01 286.78 561.28C 296 569.92 303.77 580.74 301.52 595.51zM271.84003 496.73C 231.45003 482.53 192.84003 487.55002 156.05002 508.11002C 141.48 516.26 128 526.32 114 535.48C 112.67607 536.41064 111.138535 536.99194 109.53 537.17C 120.18 523.68 133.42 513.56 148.20999 505.16998C 177.20999 488.68 208.07999 478.46997 241.5 482.41998C 274.92 486.37 305.21 499.52997 325.09 528.42C 335.34 543.3 340.38998 561.07 342.47 579.32996C 343.66 589.79 346.01 600.20996 346.16 610.67C 346.30002 620.72 342.04 629.57996 332.39 634.48C 330.28003 635.55 327.56003 635.48 325.11002 635.86L325.11002 635.86L324.6 633.98L333.51 626.44995C 344.11002 617.44995 341.73 604.94995 340.1 594.1699C 337.6875 578.60175 333.6315 563.333 328 548.62C 318 522.37 298.08 506 271.84 496.73zM816.84 545.19C 836.93005 541.27 856.37 546.02 871.75 561.7C 826.61 541.77 788.93 548.45 760.92 591.92C 769.08 563.26 790.71 550.29 816.84 545.19zM828.9 692.53C 792.58 692.41003 763.83 663.74005 763.42004 625.87C 763.00006 590.06 791.77 558.38 829.15 558.7C 866.82 559.02 895.75 588.77 895.73004 625.26C 895.72 663.29 867.4 692.66 828.9 692.53z" stroke="none" fill="#A00000" fill-rule="nonzero" />
	<g transform="matrix(0.23025 0 0 0.23 38.375008 -0)">
	</g>
    <path transform="matrix(0.23025 0 0 0.23 38.375008 -0)"  d="M246.57 332.31C 245.07 326.9 256.92 325.56 260.44 324.43C 261.82 323.99 263.53 322.88 262.97 321.55C 262.78787 321.19348 262.52405 320.8851 262.2 320.65C 255.88 315.33 247.74 312.41998 241.69002 306.79C 238.06001 303.41 236.35002 302.06 231.69002 300.41C 232.38002 308.53 241.69002 313.30002 247.45001 317.54C 248.61514 318.29132 249.63208 319.2506 250.45001 320.37C 250.55757 320.51633 250.62326 320.68918 250.64001 320.87C 250.64001 321.19998 250.34001 321.44 250.07 321.61C 248.22 322.83 246.07 323.03 244.07 323.99C 241.56674 325.40494 239.22035 327.08093 237.07 328.99C 236.75746 329.19757 236.5138 329.49347 236.37001 329.84C 236.28719 330.3539 236.43747 330.87802 236.78001 331.27C 238.10274 332.91833 239.69121 334.33444 241.48001 335.46C 248.43001 340.46 253.61002 346.38 262.04 349.18L262.04 349.18L258.16 351.97998C 257.59 352.38998 256.96 352.97998 257.08002 353.63998C 257.17 354.16998 257.68002 354.50998 258.14 354.78C 262.36002 357.28668 266.64667 359.68 271 361.96C 272.91 362.96 272.44 364.72998 271.62 366.41L271.62 366.41L267.3 375.32C 267.58 376.76 269.3 377.32 270.69998 377.69C 272.96 378.22 277.37997 378.36002 279.25998 379.69C 281.31998 381.15 281.52997 384.6 281.80997 386.95L281.80997 386.95L285.62997 418.13C 285.77997 419.33002 286.00998 420.67 287.00998 421.36002C 288.00998 422.05002 289.63998 421.68002 290.74 420.92C 291.7442 420.04865 292.80664 419.2468 293.91998 418.52002C 297.84 416.52002 299.46 419.7 300.91998 422.39C 303.03998 426.39 306.02997 430.06003 308.53998 433.80002L308.53998 433.80002L298.52 433.80002C 256.9 433.80002 215.25998 433.15002 173.65999 434.16C 159.24998 434.51 146.88998 430.04 134.85999 424.16C 124.68999 419.16 115.289986 412.38 106.14999 405.58002C 101.98999 402.48 99.26999 397.44 95.89999 393.27002L95.89999 393.27002L97.33999 390.77002C 101.969986 391.51 106.66999 391.97003 111.20999 393.06003C 118.62999 394.85004 121.01999 393.28003 119.71999 385.32004C 118.30999 376.64005 115.159996 368.25003 113.78999 359.57004C 112.52999 351.57004 112.619995 343.39005 112.119995 335.29004L112.119995 335.29004L114.70999 334.61005C 118.02999 340.23004 121.30999 345.88004 124.70999 351.46005C 126.37999 354.22006 127.80999 357.32004 130.12 359.46005C 131.81999 361.01004 135.51 362.46005 136.98 361.65005C 139.06 360.46005 141.25 357.01004 141.06999 354.72006C 140.40999 346.55005 138.45999 338.50006 137.54999 330.34006C 135.73999 314.25006 134.26 298.12006 132.79 281.99005C 132.70999 281.13007 133.98999 280.15005 135.48999 277.99005C 139.23 284.47006 142.48999 290.24005 145.85999 295.92004C 148.85999 300.92004 151.64998 306.15005 155.29999 310.65005C 156.71999 312.41006 160.29999 312.46005 162.81999 313.29007C 163.45999 311.02008 164.56 308.77008 164.62999 306.48007C 164.76 301.94006 164.30998 297.38007 164.15 293.98007L164.15 293.98007L199.79 308.84006L202.87 306.26007L194.54999 272.93005L196.43999 271.28006C 202.83998 276.53006 209.08998 281.97006 215.68999 286.96005C 219.04999 289.50006 223.02998 291.24005 226.68999 293.34006C 227.68999 289.14005 228.99998 284.97006 229.68999 280.71005C 230.15 277.98004 229.77998 275.10007 230.82999 271.99005C 236.21999 277.62006 247.82999 275.25006 247.28998 286.64005C 257.21 278.64005 257.06998 278.71005 250.85999 267.64005C 248.71999 263.83005 247.50998 259.49005 245.30998 253.99005C 266.4 257.39005 280.05 275.75006 302.31 273.14005L302.31 273.14005L292.31 251.69005C 303.63998 254.23004 313.59 256.77005 323.68 258.54004C 327.07 259.13004 330.8 257.76004 334.37 257.29004C 333.37 253.60004 332.72 249.75005 331.22998 246.29004C 329.52 242.29004 327.05997 238.56004 324.91998 234.71004L324.91998 234.71004L326.91998 232.54004C 334.62997 236.54004 342.41998 240.43004 349.99997 244.68004C 353.80997 246.82004 357.05997 249.95004 360.87997 252.08003C 363.09998 253.32004 365.94998 253.44003 368.50998 254.08003C 368.19998 251.40004 367.93997 248.72003 367.50998 246.08003C 367.38998 245.32004 366.86996 244.62003 365.27 241.16003C 373.12997 243.56003 378.97998 245.22003 384.72998 247.16003C 387.21 247.99004 389.43 250.07004 391.90997 250.37004C 396.36 250.91003 400.90997 250.53004 405.42996 250.54004L405.42996 250.54004L405.42996 237C 414.29996 240.17 424.26996 243.89 434.33997 247.28C 447.53998 251.72 448.33997 251.06 447.92996 235.28C 473.53998 242.59 498.67996 251.69 525.67993 244.15L525.67993 244.15L527.0899 247.20999C 519.36993 255.81999 511.3999 264.21 503.9899 273.09998C 496.5799 281.98996 489.6599 291.42996 480.6199 299.63998C 481.0499 297.63998 482.2499 295.36 481.7299 293.63998C 480.7899 290.53 478.80988 287.74 477.2599 284.81998C 475.0799 286.81998 471.87988 288.38998 470.90988 290.81998C 468.5499 296.81998 467.3299 303.24997 465.4199 309.43C 464.55612 312.00806 463.5479 314.5353 462.4 317C 457.53 315.75 451.63 312.84 450.4 314.21C 447.63 317.21 446.47998 322.3 446.00998 326.69C 445.33 333.01 445.83997 339.46 445.83997 345.85L445.83997 345.85L443.59998 346.57C 441.41998 343.02002 439.52997 339.25 436.94998 336.02002C 435.27 333.92 431.87997 330.82 430.50998 331.35C 428.05 332.35 424.9 335.7 424.91998 338.04C 424.99 345.61002 426.3 353.17 427.27997 360.72C 428.25995 368.27 429.40997 375.58 430.47998 383L430.47998 383L428.16998 384.1C 422.06998 378.35 415.75998 373.67 412.46 365.94C 408.89752 357.9076 406.01086 349.59207 403.83 341.08002C 403.72 340.63 403.56 340.08002 403.12997 339.93002C 402.84964 339.8449 402.55032 339.8449 402.27 339.93002L402.27 339.93002L395.77 341.33002C 395.28 341.43002 394.69 341.51 394.36 341.13C 394.18683 340.87076 394.1058 340.56082 394.12997 340.25C 394.00998 335.77 394.69998 331.59 395.12997 327.25C 395.30997 325.44 393.62997 313.14 394.59998 312.5C 391.11996 314.83 390.36996 319.5 389.93997 323.7L389.93997 323.7L388.09 341C 387.84 343.37 387.63998 345.94 388.88998 348C 391.81192 348.58643 394.84674 347.96213 397.3 346.27C 397.95956 345.63354 398.82504 345.25403 399.74 345.19998C 400.91 345.33 401.53998 346.61 401.93 347.71997C 404.67667 355.63345 405.98068 363.97577 405.78 372.34998C 405.59 380.08 402.83 387.55 401.61 395.16998C 400.28 403.49 399.87 411.94998 398.88998 422.08C 386.88998 413.3 390.62997 398.55 381.43997 388.16998C 379.98996 392.77 378.71997 395.8 378.08997 398.96C 376.08997 409.00998 374.60995 419.19998 372.08997 429.13C 371.57996 431.13 367.70996 433.06 365.08997 433.68C 361.74997 434.46 358.08997 433.87 353.92996 433.87C 353.50995 433.87 351.09998 418.04 350.84998 416.51C 349.99997 411.42 349.55 407.44 345.21997 403.87C 341.091 405.45847 337.28815 407.79034 334 410.75C 331.11115 403.50397 329.227 395.89673 328.4 388.14C 328.25998 386.85 327.99 385.32 326.81 384.80002C 321.51 382.47003 322.81 394.80002 323.16998 396.69003C 324.96997 405.90002 328.24 414.75003 331.50998 423.55005C 331.68 424.00006 331.90997 424.55005 332.37997 424.63004C 332.73602 424.65878 333.09064 424.55948 333.37997 424.35004L333.37997 424.35004L339.06998 421.20004C 339.66998 420.87006 340.41998 420.54004 340.99997 420.90005C 341.31625 421.15686 341.54367 421.50674 341.64996 421.90005C 343.28998 425.90005 344.64996 430.08005 346.64996 433.90005L346.64996 433.90005L323.9 433.90005C 320.41 429.39005 317.28 425.70004 314.54 421.73004C 310.97 416.54004 307.71002 411.13004 304.31 405.82004C 301.24 401.04004 297.72 400.97003 293.63998 405.02005C 293.00998 405.64005 292.31998 406.21005 289.81 408.47006C 289.19 407.02005 287.87 405.47006 287.96 403.92007C 288.44 395.48007 289.31998 387.39008 289.06 378.92007C 289.12448 377.65622 288.8664 376.39673 288.31 375.26007C 287.31 373.68008 285.38998 373.03006 283.56 372.81006C 281.73 372.59006 279.82 372.64005 278.11 371.93005C 277.56973 371.7556 277.12036 371.37454 276.86 370.87006C 276.12 369.01007 281.11 363.68005 282.22998 362.50006C 282.5379 362.2358 282.7635 361.88873 282.87997 361.50006C 283.02 360.68005 282.21997 360.04007 281.49997 359.63007C 278.71155 358.02335 275.69806 356.84357 272.55997 356.13007C 271.40567 355.9761 270.2995 355.56982 269.31998 354.94006C 268.33267 354.25433 268.022 352.93408 268.59998 351.88007C 269.14996 351.13007 270.16998 350.98007 271.03998 350.66006C 271.90997 350.34006 272.8 349.47006 272.44998 348.66006C 264.70523 345.64154 257.34958 341.70688 250.53998 336.94006C 248.91144 335.99805 247.58606 334.61023 246.71997 332.94006C 246.65462 332.734 246.60449 332.5234 246.57 332.31zM336.23 341.94C 337.47568 343.31595 338.37704 344.9679 338.86002 346.76C 343.42917 359.47955 349.01724 371.80945 355.57 383.63C 356.14883 385.0003 357.16977 386.13742 358.47 386.86002C 365.06 389.58002 367.6 357.48 367.81 355.01C 368.09 351.67 368.23 348.18002 366.93 345.09C 366.82 344.82 366.66 344.52 366.37 344.46C 366.13565 344.44055 365.90198 344.50427 365.71 344.63998C 361.87 346.81 361.50998 351.83 360.34 355.74C 358.9 360.56 357.54 365.41 356.1 370.22998C 353.97 366.49 352.38 364.55997 351.7 362.34998C 349.7 355.93997 348.5 349.27997 346.26 342.97998C 342.11002 331.33 340.90002 324.31998 326.82 336.4C 326.38 336.77 325.34 336.4 324.45 336.4C 333.30002 317.51 333.17 317.87 313.89 310.4C 309.67 308.77 306.67 306.53 303.21002 303.69C 302.557 303.29257 302.11383 302.62598 302.00003 301.87C 302.08905 301.23395 302.45523 300.67004 303.00003 300.33C 305.00003 298.68997 307.78003 298.33 310.37003 298.09998C 313.37003 297.8 318.12003 298.22998 320.81003 296.97998C 324.67 295.18 320.48004 293.33997 318.14 291.46C 315 288.93 311.81003 286.35 309.5 283.02C 308.63 281.75 306 277.83 304.15 280.16998C 303.67734 280.87555 303.4717 281.72647 303.57 282.56998C 303.57892 283.50168 303.81216 284.4175 304.25 285.24C 304.9045 286.13632 305.64465 286.9669 306.46 287.72C 307.27118 288.48953 307.61697 289.6295 307.37 290.72C 303.37 292.07 291.24 293.94 292.69 300.54C 293.18 302.78 294.95 304.49002 296.63 306.05002C 298.99826 308.3659 301.5389 310.49872 304.23 312.43002C 306.771 314.03903 309.40558 315.49487 312.12003 316.79C 314.12003 317.79 316.17 319.79 318.32004 320.25C 319.70004 320.57 321.38004 320.99 321.77005 322.36C 321.89905 323.1541 321.77667 323.96875 321.42004 324.68997C 318.9996 331.29364 317.70825 338.2576 317.60004 345.28998C 320.14005 346.02 322.87003 345.38998 325.33005 344.44998C 328.33005 343.31998 332.87006 339.16998 335.93005 341.55zM200.72 390.88C 200.9145 391.25955 201.03015 391.67456 201.06 392.1C 201.00613 393.09848 200.65822 394.05875 200.06 394.86002L200.06 394.86002L192.06 408.17C 191.77 408.65002 191.48999 409.26 191.79 409.72C 191.95795 409.93723 192.183 410.10342 192.43999 410.2C 198.15999 412.93002 204.35999 413.57 210.60999 413.73L210.60999 413.73L219.11998 413.96002C 219.46999 413.96002 226.20998 412.96002 225.22998 412.19003C 222.90997 410.27002 220.41998 410.19003 217.66998 409.83005C 214.38766 409.29324 211.22174 408.19736 208.30998 406.59006C 207.73997 406.29007 207.09998 405.87006 207.03998 405.23007C 207.04498 404.8414 207.16313 404.46265 207.37997 404.14008C 208.8085 401.53632 210.4828 399.0751 212.37997 396.79007C 213.31998 395.66006 214.37997 394.41006 214.27997 392.95007C 214.17996 391.49008 212.93997 390.33008 211.81996 389.3401C 208.36996 386.3401 205.55997 382.5301 202.12996 379.6001C 198.25996 376.3001 193.82996 373.7301 190.02995 370.3101C 188.27995 368.74008 183.60995 365.1901 183.43996 362.6501C 183.26996 360.11008 187.10995 358.9001 188.87996 357.7501C 191.61554 355.92865 194.49503 354.33337 197.48996 352.9801C 198.00996 352.7501 198.59996 352.4401 198.64996 351.8801C 198.64758 351.5401 198.52744 351.21146 198.30997 350.9501C 196.85997 348.8201 194.70996 347.2901 192.81996 345.5401C 187.51996 340.6201 184.23996 333.8701 179.16997 328.7101C 177.98997 332.56012 177.99997 335.40012 180.16997 338.7101C 182.33997 342.0201 184.83997 344.8301 187.16997 347.9201C 187.59996 348.5001 188.03996 349.2501 187.70996 349.9201C 187.4055 350.35345 186.94159 350.64835 186.41997 350.7401C 182.66008 351.96124 179.02661 353.54187 175.56996 355.4601C 173.64996 356.53012 171.56996 358.00012 171.36996 360.1801C 171.35435 361.53638 171.75197 362.8653 172.50996 363.9901C 175.75095 369.74976 180.23251 374.71637 185.62996 378.53012C 190.62996 381.97012 196.31996 384.8601 199.99995 389.81012C 200.27194 390.14417 200.51294 390.5023 200.72 390.88zM432.36 289.06C 424.36 286.34 416.25998 283.58 408.13998 281.06C 406.25998 280.49 403.97998 279.4 404.06 277.43C 404.12 275.86 405.69 274.87 406.86 273.82C 408.02997 272.77002 408.86 270.69 407.53998 269.82C 407.23212 269.63443 406.8934 269.50574 406.53998 269.44C 396.58997 266.87 383.24 260.89 372.93997 263.32C 378.36996 269.13 386.83 270.69 393.93997 274.32C 394.47107 274.51663 394.90262 274.9158 395.13998 275.43C 395.22534 275.9114 395.14795 276.4075 394.91998 276.84L394.91998 276.84L393 281.74C 405.25543 286.37 418.05832 289.3951 431.09 290.74C 432.13 290.84 432.45 290 432.36 289.06zM477.52997 266.8C 475.29996 266.00998 473.06998 265.22998 470.82996 264.49C 465.62997 262.76334 460.38995 261.17 455.10995 259.71C 453.94565 259.26605 452.67694 259.1722 451.45996 259.44C 450.45996 259.75 447.92996 261.08002 448.27997 262.44C 448.42996 262.98 448.99997 263.26 449.50998 263.44L449.50998 263.44L456.55997 266.36002C 459.46506 267.66174 462.5556 268.50186 465.71997 268.85C 464.46997 273.09 458.30997 273.85 456.28998 277.85C 456.68 277.09 469.81998 276.14 471.55 275.71C 474.69 274.93 479.62997 274.19 481.55 271.13C 483.47 268.07 481.47 268.26 478.55 267.22z" stroke="none" fill="#00630E" fill-rule="nonzero" />
	<g transform="matrix(0.23025 0 0 0.23 38.375008 -0)">
	</g>
    <path transform="matrix(0.23025 0 0 0.23 38.375008 -0)"  d="M829.08 667.59C 854.15 669.59 872.52 648.25 871.72003 624.53C 870.89 599.86005 853.92004 583.09 830.10004 583.11005C 805.16003 583.11005 788.47003 599.11005 787.36005 625.11005C 786.32 648.8 806.16 668.44 829.08 667.59z" stroke="none" fill="#FFFFFF" fill-rule="nonzero" />
	<g transform="matrix(0.23025 0 0 0.23 38.375008 -0)">
	</g>
    <path transform="matrix(0.23025 0 0 0.23 38.375008 -0)"  d="M301.52 595.51C 289.15 573.34 273 557 247.17 552C 222.03 547.1 200.57 554.62 180.43 569.32C 185.04999 557.55 194.93 551.89 205.62 548.21C 234.84 538.15 263.03 539.01 286.78 561.28C 296 569.92 303.77 580.74 301.52 595.51z" stroke="none" fill="#FFFFFF" fill-rule="nonzero" />
	<g transform="matrix(0.23025 0 0 0.23 38.375008 -0)">
	</g>
    <path transform="matrix(0.23025 0 0 0.23 38.375008 -0)"  d="M829.08 667.59C 806.16003 668.44 786.33 648.80005 787.35004 625.08C 788.47003 599.14 805.15 583.08 830.09 583.08C 853.91003 583.08 870.88 599.83 871.71 624.5C 872.51 648.25 854.14 669.55 829.08 667.59zM856.64 625.41003C 856.64 609.00006 845.64 598.01 829.17004 598.01C 814.00006 598.01 800.81006 610.85004 800.89 625.54004C 800.97003 640.92004 814.4 653.85004 829.8 653.81006C 843.06 653.77 859.5 639.58 856.63 625.41z" stroke="none" fill="#606060" fill-rule="nonzero" />
	<g transform="matrix(0.23025 0 0 0.23 38.375008 -0)">
	</g>
    <path transform="matrix(0.23025 0 0 0.23 38.375008 -0)"  d="M231.09 667.59C 207.42 667.59 188.7 649 189.59999 624.71C 190.54999 599.14 206.53 584.46 230.90999 583.02C 256.27 581.52 274.65997 603.4 274.31 627.33C 274 647 257.86 668.91 231.09 667.59zM232 597.4C 224.59465 597.5211 217.52237 600.49835 212.26 605.71C 207.37999 610.55005 202.51 617.96 203.20999 625.17004C 204.56999 639.27 213.12 653.54004 232.70999 653.75006C 246.84999 653.9001 261.19998 639.55005 260.63998 625.36005C 260.21997 614.80005 252.63998 604.08 243.07999 599.72003C 239.6029 598.13916 235.81921 597.3469 232 597.4z" stroke="none" fill="#606060" fill-rule="nonzero" />
	<g transform="matrix(0.23025 0 0 0.23 38.375008 -0)">
	</g>
    <path transform="matrix(0.23025 0 0 0.23 38.375008 -0)"  d="M856.63 625.41C 859.5 639.58997 843.06 653.76996 829.79 653.81C 814.38995 653.81 800.95996 640.93 800.88 625.54C 800.8 610.86 814 598 829.16 598C 845.63 598 856.64 609 856.63 625.41zM829.44 646.57996C 842.31 646.57996 850.81 638.06995 850.83 625.0499C 850.8919 619.41455 848.6861 613.9908 844.70856 609.99817C 840.731 606.0056 835.3156 603.77936 829.68 603.81995C 816.89 603.81995 807.39996 612.86993 807.44 625.14996C 807.48004 637.43 816.94 646.53 829.44 646.58z" stroke="none" fill="#2D2D2D" fill-rule="nonzero" />
	<g transform="matrix(0.23025 0 0 0.23 38.375008 -0)">
	</g>
    <path transform="matrix(0.23025 0 0 0.23 38.375008 -0)"  d="M829.44 646.58C 816.94 646.58 807.44 637.32 807.44 625.15C 807.44 612.98004 816.89 603.77 829.68 603.82C 835.3068 603.77966 840.7145 605.9991 844.69055 609.9808C 848.6666 613.96246 850.8784 619.3733 850.83 625C 850.82 638.06 842.32 646.62 829.44 646.58z" stroke="none" fill="#2D2D2D" fill-rule="nonzero" />
	<g transform="matrix(0.23025 0 0 0.23 38.375008 -0)">
	</g>
    <path transform="matrix(0.23025 0 0 0.23 38.375008 -0)"  d="M253.19 626.3C 253.02 637.51996 242.95 647.83997 232.09 647.93C 221.51 648.01 209.09 635.76 209.09 625.12C 209.01 613.77997 220.26999 603.64 232.72 603.82C 244.61 604 253.38 613.61 253.19 626.3zM248.29001 625.47C 248.38 615.63995 241.64001 608.47 232.38 608.42C 222.38 608.42 214.65001 612.82 214.38 627.3C 214.25 634.3 224.38 643.1 232.02 643.04C 240.48 643 248.2 634.64 248.28 625.46z" stroke="none" fill="#606060" fill-rule="nonzero" />
	<g transform="matrix(0.23025 0 0 0.23 38.375008 -0)">
	</g>
    <path transform="matrix(0.23025 0 0 0.23 38.375008 -0)"  d="M427 294.29L427.31 294.29" stroke="none" fill="none" />
	<g transform="matrix(0.23025 0 0 0.23 38.375008 -0)">
	</g>
    <path transform="matrix(0.23025 0 0 0.23 38.375008 -0)"  d="M62.42 460.43C 62.42 458.4749 145.93231 456.88998 248.95 456.88998C 351.96768 456.88998 435.47998 458.4749 435.47998 460.43C 435.47998 462.38507 351.96768 463.97 248.95 463.97C 145.93231 463.97 62.42 462.38507 62.42 460.43" stroke="none" fill="#FFFFFF" fill-rule="nonzero" />
	<g transform="matrix(0.23025 0 0 0.23 38.375008 -0)">
	</g>
    <path transform="matrix(0.23025 0 0 0.23 38.375008 -0)"  d="M466.61 460.43C 466.61 458.4749 505.8164 456.88998 554.18 456.88998C 602.5436 456.88998 641.75 458.4749 641.75 460.43C 641.75 462.38507 602.5436 463.97 554.18 463.97C 505.8164 463.97 466.61 462.38507 466.61 460.43" stroke="none" fill="#FFFFFF" fill-rule="nonzero" />
	<g transform="matrix(0.23025 0 0 0.23 38.375008 -0)">
	</g>
    <path transform="matrix(0.23025 0 0 0.23 38.375008 -0)"  d="M614.8 495.92C 614.8 487.70755 615.63275 481.05002 616.66 481.05002C 617.6872 481.05002 618.51996 487.70755 618.51996 495.92C 618.51996 504.13248 617.6872 510.79 616.66 510.79C 615.63275 510.79 614.8 504.13248 614.8 495.92" stroke="none" fill="#FFFFFF" fill-rule="nonzero" />
	<g transform="matrix(0.23025 0 0 0.23 38.375008 -0)">
	</g>
    <path transform="matrix(0.23025 0 0 0.23 38.375008 -0)"  d="M897.54 442C 901.54 446.85 902.3 453.55 902.44995 459.83C 902.55945 460.58997 902.3733 461.36304 901.92993 461.99C 901.29535 462.4857 900.4882 462.7055 899.68994 462.59998L899.68994 462.59998L880.14996 462.53998C 879.41 462.53998 873.30994 436.40997 881.80994 434.65997C 887.43 433.5 894.1 437.8 897.54 442z" stroke="none" fill="#FFFFFF" fill-rule="nonzero" />
	<g transform="matrix(0.23025 0 0 0.23 38.375008 -0)">
	</g>
    <path transform="matrix(0.23025 0 0 0.23 38.375008 -0)"  d="M363.77997 612.41C 363.77997 610.20636 447.81165 608.42 551.47 608.42C 655.1283 608.42 739.16 610.20636 739.16 612.41C 739.16 614.6136 655.1283 616.39996 551.47 616.39996C 447.81165 616.39996 363.77997 614.6136 363.77997 612.41" stroke="none" fill="#FFFFFF" fill-rule="nonzero" />
	<g transform="matrix(0.23025 0 0 0.23 38.375008 -0)">
	</g>
    <path transform="matrix(0.23025 0 0 0.23 38.375008 -0)"  d="M511 362.61C 512.3034 361.32205 513.71155 360.14468 515.21 359.09C 516.7189 358.02933 518.3031 357.08014 519.95 356.25L519.95 356.25L521.76 355.34L520.92 357.24C 520.14996 358.99 519.33997 360.72 518.52997 362.44998L518.52997 362.44998L517.28 365C 517.08887 365.35428 516.9411 365.73032 516.84 366.12C 516.77 366.47 516.84 366.6 516.84 366.66L516.84 366.66L515.66003 366.5C 516.9897 365.61707 518.2653 364.65536 519.48004 363.62C 520.7548 362.54428 522.0904 361.5426 523.48004 360.62C 524.89374 359.67047 526.4598 358.97034 528.11005 358.55C 529.7581 358.10526 531.50275 358.17505 533.11005 358.75C 531.5119 358.54718 529.88855 358.7643 528.4 359.38C 526.9327 359.97318 525.55853 360.77475 524.32 361.76C 523.07 362.76 521.89 363.84 520.67 364.94C 519.443 366.08765 518.12537 367.13437 516.73 368.07L516.73 368.07L516.08997 368.49002L515.55 367.91003C 515.26495 367.5944 515.08044 367.201 515.01996 366.78003C 514.9604 366.44937 514.9604 366.1107 515.01996 365.78003C 515.15826 365.24323 515.36316 364.72586 515.62994 364.24002L515.62994 364.24002L516.91 361.68002C 517.79 359.98 518.66 358.28003 519.56995 356.60004L519.56995 356.60004L520.56995 357.60004C 518.9199 358.29004 517.2899 359.05005 515.70996 359.89005C 514.13 360.73004 512.54 361.65 511 362.61z" stroke="none" fill="#000000" fill-rule="nonzero" />
	<g transform="matrix(0.23025 0 0 0.23 38.375008 -0)">
	</g>
    <path transform="matrix(0.23025 0 0 0.23 38.375008 -0)"  d="M618.42 390.07C 616.2135 391.90952 614.1876 393.95547 612.37 396.18C 610.50336 398.36 608.70667 400.59332 606.98 402.88C 605.2533 405.1667 603.5867 407.50003 601.98 409.88C 600.38995 412.25 598.92 414.71 597.48 417.18L597.48 417.18L595.87 416.32C 597.0472 414.09735 598.6117 412.10272 600.49 410.43C 602.30634 408.78595 604.26013 407.30054 606.33 405.99C 610.39526 403.33643 614.79333 401.23154 619.41003 399.72998C 617.25006 400.80997 615.12006 401.9 613.08 403.15997C 611.04 404.41995 609.08 405.71997 607.08 407.15997C 605.1637 408.54593 603.3429 410.05933 601.63 411.68997C 599.9585 413.28317 598.5569 415.13733 597.48 417.17996L597.48 417.17996L595.87 416.31998C 598.7136 411.24677 602.01385 406.44366 605.73 401.96997C 607.58997 399.73996 609.55 397.59998 611.61 395.55997C 613.6525 393.46448 615.93884 391.62134 618.42 390.07z" stroke="none" fill="#000000" fill-rule="nonzero" />
	<g transform="matrix(0.23025 0 0 0.23 38.375008 -0)">
	</g>
    <path transform="matrix(0.23025 0 0 0.23 38.375008 -0)"  d="M593.56 389.93C 595.8827 388.13138 598.5263 386.7909 601.35 385.97998L601.35 385.97998L602.67 385.58997L601.77997 386.68997C 598.59357 390.61554 595.6416 394.72623 592.94 399C 591.6 401.13 590.33 403.31 589.11 405.51C 587.88995 407.71002 586.77997 409.97 585.7 412.24002L585.7 412.24002L584.13 411.30002C 587.8601 406.6112 592.3044 402.53812 597.3 399.23C 599.73 397.53 602.25 395.97 604.77997 394.46002C 607.30994 392.95004 609.87994 391.46002 612.48 390.08002C 610.1 391.82 607.63995 393.46002 605.25 395.17C 602.86005 396.88 600.45 398.57 598.12 400.35C 595.99976 402.31952 594.0527 404.46738 592.3 406.77002L592.3 406.77002L587.18 413.66003L590.74 405.83005C 591.8 403.50006 592.99 401.23004 594.24 398.99005C 595.49 396.75006 596.83997 394.58005 598.24 392.46005C 601.0891 388.19965 604.2903 384.18564 607.81 380.46005L607.81 380.46005L608.24 381.16006C 602.4747 382.28464 597.2827 385.38635 593.56 389.93z" stroke="none" fill="#000000" fill-rule="nonzero" />
	<g transform="matrix(0.23025 0 0 0.23 38.375008 -0)">
	</g>
    <path transform="matrix(0.23025 0 0 0.23 38.375008 -0)"  d="M447.09 493.57C 447.09 493.1558 447.42578 492.82 447.84 492.82L447.84 492.82L451.91998 492.82C 452.3342 492.82 452.66998 493.1558 452.66998 493.57L452.66998 493.57L452.66998 602.95C 452.66998 603.3642 452.3342 603.7 451.91998 603.7L451.91998 603.7L447.84 603.7C 447.42578 603.7 447.09 603.3642 447.09 602.95L447.09 602.95L447.09 493.57z" stroke="none" fill="#FFFFFF" fill-rule="nonzero" />
	<g transform="matrix(0.23025 0 0 0.23 38.375008 -0)">
	</g>
    <path transform="matrix(0.23025 0 0 0.23 38.375008 -0)"  d="M641.75 490.47C 641.75 490.0558 642.0858 489.72 642.5 489.72L642.5 489.72L646.58 489.72C 646.9942 489.72 647.33 490.0558 647.33 490.47L647.33 490.47L647.33 599.85C 647.33 600.2642 646.9942 600.6 646.58 600.6L646.58 600.6L642.5 600.6C 642.0858 600.6 641.75 600.2642 641.75 599.85L641.75 599.85L641.75 490.47z" stroke="none" fill="#FFFFFF" fill-rule="nonzero" />
	<g transform="matrix(0.23025 0 0 0.23 38.375008 -0)">
	</g>
    <path transform="matrix(0.23025 0 0 0.23 38.375008 -0)"  d="M851.59 626.34C 851.42004 637.56 841.35004 647.88 830.49005 647.97003C 819.91003 648.05005 807.49005 635.80005 807.49005 625.16003C 807.41003 613.82 818.67004 603.68005 831.12006 603.86005C 843 604 851.78 613.65 851.59 626.34zM846.69 625.51C 846.78 615.68 840.04 608.51 830.78 608.46C 820.78 608.46 813.05005 612.86005 812.78 627.34C 812.65 634.34 822.78 643.14 830.42004 643.08C 838.88 643 846.6 634.69 846.68 625.51z" stroke="none" fill="#606060" fill-rule="nonzero" />
</g>
</svg>